<?xml version="1.0" encoding="utf-8"?>
<!-- Generator: Adobe Illustrator 27.0.0, SVG Export Plug-In . SVG Version: 6.00 Build 0)  -->
<svg version="1.1" id="Capa_1" xmlns="http://www.w3.org/2000/svg" xmlns:xlink="http://www.w3.org/1999/xlink" x="0px" y="0px"
	 viewBox="0 0 209.2 26.8" style="enable-background:new 0 0 209.2 26.8;" xml:space="preserve">
<style type="text/css">
	.st0{fill:#003057;}
	.st1{fill:#9C182F;}
	.st2{fill:#E20613;}
	.st3{fill-rule:evenodd;clip-rule:evenodd;fill:#E20613;}
	.st4{fill-rule:evenodd;clip-rule:evenodd;fill:#FFFFFF;}
	.st5{fill:#FFFFFF;}
	.st6{fill:#1D1D1B;}
</style>
<g>
	<g>
		<g>
			<path class="st0" d="M127.1,6.9h7.9L134.7,9H132l-1.1,6.5h-2.6l1.1-6.5h-2.7L127.1,6.9z"/>
		</g>
	</g>
	<g>
		<g>
			<path class="st0" d="M144.2,6.9h2.9l1.2,2.9l2.2-2.9h2.9l-4.2,5l-0.6,3.6H146l0.6-3.6L144.2,6.9z"/>
		</g>
	</g>
	<path class="st0" d="M170.6,10.3c-0.1,0.5-0.3,0.9-0.7,1.3c-0.4,0.3-0.9,0.5-1.4,0.5h-4.3l-0.6,3.2h-1.8l0.9-5h5.9
		c0.1,0,0.1,0,0.1-0.1c0,0,0.1-0.1,0.1-0.1l0.2-1c0-0.1,0-0.2-0.2-0.2h-5.9l0.3-1.8h6.1c0.5,0,0.9,0.2,1.2,0.5
		c0.3,0.3,0.4,0.8,0.3,1.3L170.6,10.3z"/>
	<path class="st0" d="M179.2,11.2c-0.2,1.2-0.5,2.1-0.9,2.8c-0.5,0.8-1.2,1.3-2,1.3h-3.6c-0.8,0-1.3-0.4-1.6-1.3
		c-0.2-0.7-0.2-1.6,0-2.8c0.1-0.8,0.3-1.4,0.5-1.9c0.2-0.7,0.6-1.2,0.9-1.5c0.4-0.4,0.9-0.6,1.5-0.6h3.6c0.9,0,1.4,0.4,1.6,1.3
		C179.4,9.1,179.4,10,179.2,11.2z M177.3,11.2c0.1-0.7,0.2-1.3,0.2-1.7c0-0.4-0.1-0.6-0.4-0.6h-3.2c-0.2,0-0.4,0.2-0.6,0.6
		c-0.1,0.4-0.3,0.9-0.4,1.7c-0.1,0.7-0.2,1.3-0.2,1.7c0,0.4,0.1,0.6,0.4,0.6h3.2c0.2,0,0.4-0.2,0.6-0.6
		C177.1,12.5,177.2,12,177.3,11.2z"/>
	<path class="st0" d="M198.7,15.3h-6.3c-0.5,0-0.9-0.2-1.2-0.5c-0.3-0.3-0.4-0.8-0.3-1.3l0.8-4.5c0.1-0.5,0.3-0.9,0.7-1.3
		c0.4-0.3,0.9-0.5,1.4-0.5h6.3L199.8,9h-6.1c-0.1,0-0.1,0-0.1,0.1c0,0-0.1,0.1-0.1,0.1l-0.2,1.2h6.3l-0.3,1.8h-6.3l-0.2,1.2
		c0,0.1,0,0.1,0,0.1c0,0,0.1,0.1,0.1,0.1h6.1L198.7,15.3z"/>
	<path class="st0" d="M208.2,15.3h-1.8l0.1-3c0-0.1-0.1-0.2-0.2-0.2h-4.1l-0.6,3.2h-1.8l0.9-5h5.9c0.1,0,0.1,0,0.1-0.1
		c0,0,0.1-0.1,0.1-0.1l0.2-1c0-0.1,0-0.2-0.2-0.2h-5.9l0.3-1.8h6.1c0.5,0,0.9,0.2,1.2,0.5c0.3,0.3,0.4,0.8,0.3,1.3l-0.2,1.3
		c0,0.2-0.1,0.3-0.2,0.5c-0.1,0.2-0.2,0.3-0.3,0.4c0.1,0.1,0.1,0.2,0.2,0.4c0,0.1,0,0.3,0,0.5L208.2,15.3z"/>
	<g>
		<g>
			<path class="st1" d="M145,17.6h-0.6l0.1-0.5h1.8l-0.1,0.5h-0.6l-0.3,1.6h-0.6L145,17.6z"/>
			<path class="st1" d="M146.1,17.7h0.6l-0.1,0.2h0c0.1-0.2,0.3-0.3,0.4-0.3c0.1,0,0.2,0,0.2,0l-0.1,0.5c-0.1,0-0.2,0-0.2,0
				c-0.2,0-0.4,0.1-0.4,0.4l-0.1,0.6h-0.6L146.1,17.7z"/>
			<path class="st1" d="M147.3,18.1c0.1-0.4,0.4-0.5,0.8-0.5c0.3,0,0.7,0,0.7,0.4c0,0.2-0.2,0.9-0.2,1c0,0.1,0,0.1,0,0.1h-0.6
				c0,0,0-0.1,0-0.1h0c-0.1,0.1-0.3,0.2-0.5,0.2c-0.3,0-0.5-0.1-0.5-0.4c0-0.4,0.3-0.5,0.7-0.5c0.2,0,0.4,0,0.4-0.2
				c0-0.1-0.1-0.1-0.2-0.1c-0.1,0-0.2,0-0.2,0.2H147.3z M147.9,18.9c0.2,0,0.3-0.1,0.3-0.4c-0.1,0-0.2,0.1-0.3,0.1
				c-0.1,0-0.2,0.1-0.2,0.2C147.7,18.9,147.8,18.9,147.9,18.9z"/>
			<path class="st1" d="M149.3,17.7h0.6l0,0.2h0c0.1-0.1,0.3-0.2,0.5-0.2c0.3,0,0.5,0.1,0.5,0.4c0,0.1,0,0.2,0,0.3l-0.2,0.9H150
				l0.2-0.7c0-0.1,0-0.2,0-0.3c0-0.1-0.1-0.1-0.2-0.1c-0.2,0-0.2,0.1-0.3,0.3l-0.2,0.8H149L149.3,17.7z"/>
			<path class="st1" d="M151.4,18.7c0,0.1,0,0.1,0.1,0.1c0,0,0.1,0,0.2,0c0.2,0,0.2-0.1,0.2-0.1c0-0.1-0.1-0.1-0.4-0.2
				c-0.1,0-0.4-0.1-0.4-0.4c0-0.4,0.4-0.6,0.8-0.6c0.3,0,0.7,0.1,0.7,0.5h-0.5c0-0.1,0-0.1,0-0.1c0,0-0.1,0-0.1,0
				c-0.1,0-0.2,0-0.2,0.1c0,0.1,0.1,0.1,0.1,0.1c0.4,0.1,0.6,0.2,0.6,0.5c0,0.4-0.3,0.6-0.8,0.6c-0.3,0-0.7-0.1-0.7-0.5H151.4z"/>
			<path class="st1" d="M152.8,17.7h0.6l0,0.2h0c0.1-0.1,0.3-0.2,0.5-0.2c0.2,0,0.4,0.1,0.4,0.3c0.1-0.2,0.3-0.3,0.5-0.3
				c0.3,0,0.5,0.1,0.5,0.5c0,0.1,0,0.2,0,0.2l-0.2,0.9h-0.6l0.2-0.7c0,0,0-0.2,0-0.2c0-0.1-0.1-0.1-0.2-0.1c-0.1,0-0.2,0.1-0.2,0.2
				l-0.2,0.9h-0.6l0.2-0.8c0,0,0-0.1,0-0.1c0-0.1-0.1-0.1-0.1-0.1c-0.1,0-0.2,0.1-0.2,0.2l-0.2,0.9h-0.6L152.8,17.7z"/>
			<path class="st1" d="M155.7,17.7h0.6l-0.3,1.5h-0.6L155.7,17.7z M156.3,17.5h-0.6l0.1-0.4h0.6L156.3,17.5z"/>
			<path class="st1" d="M157.3,17.7h0.3l-0.1,0.4h-0.3l-0.1,0.5c0,0.1,0,0.1,0,0.2c0,0.1,0,0.1,0.1,0.1c0.1,0,0.1,0,0.2,0l-0.1,0.4
				c-0.1,0-0.2,0-0.3,0c-0.1,0-0.3,0-0.4-0.1c-0.1-0.1-0.2-0.2-0.2-0.3c0-0.1,0-0.1,0-0.2l0.1-0.6h-0.3l0.1-0.4h0.3l0.1-0.5h0.6
				L157.3,17.7z"/>
			<path class="st1" d="M158.5,17.7h0.3l-0.1,0.4h-0.3l-0.1,0.5c0,0.1,0,0.1,0,0.2c0,0.1,0,0.1,0.1,0.1c0.1,0,0.1,0,0.2,0l-0.1,0.4
				c-0.1,0-0.2,0-0.3,0c-0.1,0-0.3,0-0.4-0.1c-0.1-0.1-0.2-0.2-0.2-0.3c0-0.1,0-0.1,0-0.2l0.1-0.6h-0.3l0.1-0.4h0.3l0.1-0.5h0.6
				L158.5,17.7z"/>
			<path class="st1" d="M159,17.7h0.6l-0.3,1.5h-0.6L159,17.7z M159.6,17.5H159l0.1-0.4h0.6L159.6,17.5z"/>
			<path class="st1" d="M159.9,17.7h0.6l0,0.2h0c0.1-0.1,0.3-0.2,0.5-0.2c0.3,0,0.5,0.1,0.5,0.4c0,0.1,0,0.2,0,0.3l-0.2,0.9h-0.6
				l0.2-0.7c0-0.1,0-0.2,0-0.3c0-0.1-0.1-0.1-0.2-0.1c-0.2,0-0.2,0.1-0.3,0.3l-0.2,0.8h-0.6L159.9,17.7z"/>
			<path class="st1" d="M163.1,18.9c-0.1,0.4-0.2,0.8-0.9,0.8c-0.2,0-0.7,0-0.7-0.5h0.6c0,0.1,0,0.1,0,0.1c0,0,0.1,0,0.1,0
				c0.2,0,0.2-0.1,0.3-0.3l0-0.2h0c-0.1,0.1-0.2,0.2-0.4,0.2c-0.4,0-0.6-0.2-0.6-0.6c0-0.4,0.3-0.9,0.7-0.9c0.2,0,0.4,0.1,0.5,0.2h0
				l0-0.2h0.6L163.1,18.9z M162.1,18.5c0,0.1,0.1,0.2,0.2,0.2c0.3,0,0.3-0.3,0.3-0.4c0-0.1,0-0.2-0.2-0.2
				C162.2,18.1,162.1,18.3,162.1,18.5z"/>
			<path class="st1" d="M164.8,17.1h1c0.4,0,0.6,0.2,0.6,0.7c0,0.4-0.4,0.8-0.9,0.8h-0.4l-0.1,0.6h-0.6L164.8,17.1z M165.2,18.1h0.2
				c0.3,0,0.3-0.1,0.3-0.2c0-0.2-0.1-0.2-0.3-0.2h-0.2L165.2,18.1z"/>
			<path class="st1" d="M167.4,17.6c0.4,0,0.7,0.2,0.7,0.7c0,0.4-0.2,0.9-0.9,0.9c-0.4,0-0.8-0.2-0.8-0.7
				C166.5,18,166.8,17.6,167.4,17.6z M167.3,18.8c0.2,0,0.3-0.3,0.3-0.5c0-0.2,0-0.3-0.2-0.3c-0.2,0-0.3,0.4-0.3,0.5
				C167.1,18.7,167.1,18.8,167.3,18.8z"/>
			<path class="st1" d="M170.2,19.2h-0.6l0-0.9h0l-0.4,0.9h-0.6l-0.2-1.5h0.6l0,0.9h0l0.4-0.9h0.6l0,0.9h0l0.4-0.9h0.6L170.2,19.2z"
				/>
			<path class="st1" d="M172.5,18.8c0,0.1-0.2,0.5-0.8,0.5c-0.5,0-0.8-0.3-0.8-0.7c0-0.7,0.5-0.9,0.9-0.9c0.3,0,0.7,0.2,0.7,0.7
				c0,0.1,0,0.2,0,0.3h-1.1c0,0.2,0.1,0.3,0.2,0.3c0.1,0,0.2-0.1,0.2-0.1H172.5z M172,18.3C172,18.3,172,18.2,172,18.3
				c0-0.2-0.1-0.3-0.2-0.3c-0.2,0-0.3,0.1-0.3,0.3H172z"/>
			<path class="st1" d="M173,17.7h0.6l-0.1,0.2h0c0.1-0.2,0.3-0.3,0.4-0.3c0.1,0,0.2,0,0.2,0l-0.1,0.5c-0.1,0-0.2,0-0.2,0
				c-0.2,0-0.4,0.1-0.4,0.4l-0.1,0.6h-0.6L173,17.7z"/>
			<path class="st1" d="M176.6,19L176.6,19c-0.1,0.2-0.4,0.3-0.6,0.3c-0.7,0-0.9-0.6-0.9-0.9c0-0.7,0.4-1.3,1.2-1.3
				c0.5,0,0.9,0.2,0.9,0.8h-0.6c0-0.2-0.1-0.3-0.3-0.3c-0.4,0-0.5,0.4-0.5,0.7c0,0.2,0.1,0.4,0.4,0.4c0.2,0,0.3-0.1,0.4-0.2h-0.3
				l0.1-0.5h0.9l-0.2,1.2h-0.4L176.6,19z"/>
			<path class="st1" d="M177.7,17.1h0.6l-0.4,2.1h-0.6L177.7,17.1z"/>
			<path class="st1" d="M179.2,17.6c0.4,0,0.7,0.2,0.7,0.7c0,0.4-0.2,0.9-0.9,0.9c-0.4,0-0.8-0.2-0.8-0.7
				C178.3,18,178.6,17.6,179.2,17.6z M179.1,18.8c0.2,0,0.3-0.3,0.3-0.5c0-0.2,0-0.3-0.2-0.3c-0.2,0-0.3,0.4-0.3,0.5
				C178.9,18.7,178.9,18.8,179.1,18.8z"/>
			<path class="st1" d="M180.5,17.1h0.6l-0.2,0.7h0c0.1-0.1,0.3-0.2,0.4-0.2c0.2,0,0.5,0.1,0.5,0.6c0,0.3-0.1,1-0.8,1
				c-0.2,0-0.4,0-0.5-0.2h0l0,0.2h-0.6L180.5,17.1z M180.8,18.6c0,0.1,0.1,0.2,0.2,0.2c0.2,0,0.3-0.3,0.3-0.5c0-0.2-0.1-0.3-0.2-0.3
				C180.8,18.1,180.8,18.4,180.8,18.6z"/>
			<path class="st1" d="M182.2,18.1c0.1-0.4,0.4-0.5,0.8-0.5c0.3,0,0.7,0,0.7,0.4c0,0.2-0.2,0.9-0.2,1c0,0.1,0,0.1,0,0.1H183
				c0,0,0-0.1,0-0.1h0c-0.1,0.1-0.3,0.2-0.5,0.2c-0.3,0-0.5-0.1-0.5-0.4c0-0.4,0.3-0.5,0.7-0.5c0.2,0,0.4,0,0.4-0.2
				c0-0.1-0.1-0.1-0.2-0.1c-0.1,0-0.2,0-0.2,0.2H182.2z M182.8,18.9c0.2,0,0.3-0.1,0.3-0.4c-0.1,0-0.2,0.1-0.3,0.1
				c-0.1,0-0.2,0.1-0.2,0.2C182.6,18.9,182.7,18.9,182.8,18.9z"/>
			<path class="st1" d="M184.3,17.1h0.6l-0.4,2.1h-0.6L184.3,17.1z"/>
			<path class="st1" d="M185.2,17.1h0.6l-0.4,2.1h-0.6L185.2,17.1z"/>
			<path class="st1" d="M186.6,19.3c-0.1,0.3-0.2,0.4-0.7,0.4c-0.1,0-0.2,0-0.3,0l0.1-0.5c0,0,0.1,0,0.1,0c0.1,0,0.2,0,0.2-0.2
				l-0.3-1.4h0.6l0.1,0.9h0l0.4-0.9h0.6L186.6,19.3z"/>
		</g>
	</g>
	<g>
		<g>
			<g>
				<path class="st0" d="M140.3,7.2C140.3,7.2,140.3,7.2,140.3,7.2c0.4-0.2,0.8-0.3,1.3-0.3C140.8,6.9,140.3,7.2,140.3,7.2z"/>
				<path class="st0" d="M140.3,7.2C140.3,7.2,140.3,7.2,140.3,7.2C140.3,7.2,140.3,7.2,140.3,7.2c0.4-0.2,0.8-0.3,1.3-0.3
					C140.8,6.9,140.3,7.2,140.3,7.2z"/>
				<path class="st0" d="M137.9,11.1c0-0.1,0-0.2,0-0.3C137.9,10.9,137.9,11,137.9,11.1C137.9,11.1,137.9,11.1,137.9,11.1z"/>
				<path class="st0" d="M137.9,11.1C137.9,11.1,137.9,11.1,137.9,11.1C137.9,11.1,137.9,11.1,137.9,11.1c0-0.1,0-0.2,0-0.3
					c0.1-1.6,1.1-3,2.3-3.6c0,0,0,0,0,0c0,0,0.5-0.3,1.3-0.3c0,0,0,0,0,0c0,0,0,0,0,0c0.2,0,0.3,0,0.5,0c-0.3-0.1-0.7-0.2-1.1-0.2
					l-1.1,0c-2.6,0-4.8,1.9-4.8,4.3c0,2.1,1.7,3.8,3.9,4.2h2.5c0,0,0,0,0,0C139.5,15.3,137.9,13.4,137.9,11.1z"/>
				<path class="st1" d="M142.3,12.5h2.4c0.1-0.2,0.1-0.3,0.1-0.5h-2.4C142.5,12.2,142.4,12.4,142.3,12.5z"/>
				<path class="st1" d="M142.6,10.9h2.4c0-0.2,0-0.3,0-0.5h-2.4C142.6,10.6,142.6,10.8,142.6,10.9z"/>
				<path class="st1" d="M142.2,9.3h2.4c-0.1-0.2-0.2-0.3-0.3-0.5h-2.4C142,9,142.1,9.2,142.2,9.3z"/>
				<path class="st1" d="M142.5,10.1h2.4c0-0.2-0.1-0.3-0.1-0.5h-2.4C142.4,9.8,142.5,10,142.5,10.1z"/>
				<path class="st1" d="M140.5,14.8c0.3,0.1,0.7,0.2,1.1,0.2c0.6,0,1.3-0.2,1.8-0.6h-2.4C140.8,14.5,140.6,14.6,140.5,14.8z"/>
				<path class="st1" d="M141.2,14.1h2.5c0.2-0.1,0.3-0.3,0.4-0.5h-2.5C141.5,13.8,141.4,13.9,141.2,14.1z"/>
				<path class="st1" d="M141.9,13.3h2.5c0.1-0.2,0.2-0.3,0.2-0.5h-2.5C142.1,13,142,13.1,141.9,13.3z"/>
				<path class="st1" d="M142.6,11.7h2.4c0-0.2,0-0.3,0-0.5h-2.4C142.6,11.4,142.6,11.6,142.6,11.7z"/>
				<path class="st1" d="M141.6,7.3c-0.4,0-0.7,0.1-1,0.2c0.1,0.1,0.2,0.2,0.3,0.3h2.3C142.7,7.5,142.2,7.3,141.6,7.3z"/>
				<path class="st1" d="M141.2,8.1c0.2,0.2,0.3,0.3,0.4,0.5h2.4c-0.1-0.2-0.3-0.3-0.5-0.5H141.2z"/>
			</g>
			<g>
				<path class="st0" d="M157,7.2C157,7.2,157,7.2,157,7.2c0.4-0.2,0.8-0.3,1.3-0.3C157.5,6.9,157,7.2,157,7.2z"/>
				<path class="st0" d="M157,7.2C157,7.2,157,7.2,157,7.2C157,7.2,157,7.2,157,7.2c0.4-0.2,0.8-0.3,1.3-0.3
					C157.5,6.9,157,7.2,157,7.2z"/>
				<path class="st0" d="M154.6,11.1c0-0.1,0-0.2,0-0.3C154.6,10.9,154.6,11,154.6,11.1C154.6,11.1,154.6,11.1,154.6,11.1z"/>
				<path class="st0" d="M154.6,11.1C154.6,11.1,154.6,11.1,154.6,11.1C154.6,11.1,154.6,11.1,154.6,11.1c0-0.1,0-0.2,0-0.3
					c0.1-1.6,1.1-3,2.3-3.6c0,0,0,0,0,0c0,0,0.5-0.3,1.3-0.3c0,0,0,0,0,0c0,0,0,0,0,0c0.2,0,0.3,0,0.5,0c-0.3-0.1-0.7-0.2-1.1-0.2
					l-1.1,0c-2.6,0-4.8,1.9-4.8,4.3c0,2.1,1.7,3.8,3.9,4.2h2.5c0,0,0,0,0,0C156.2,15.3,154.6,13.4,154.6,11.1z"/>
				<path class="st1" d="M159,12.5h2.4c0.1-0.2,0.1-0.3,0.1-0.5h-2.4C159.2,12.2,159.1,12.4,159,12.5z"/>
				<path class="st1" d="M159.3,10.9h2.4c0-0.2,0-0.3,0-0.5h-2.4C159.3,10.6,159.3,10.8,159.3,10.9z"/>
				<path class="st1" d="M158.9,9.3h2.4c-0.1-0.2-0.2-0.3-0.3-0.5h-2.4C158.7,9,158.8,9.2,158.9,9.3z"/>
				<path class="st1" d="M159.2,10.1h2.4c0-0.2-0.1-0.3-0.1-0.5H159C159.1,9.8,159.2,10,159.2,10.1z"/>
				<path class="st1" d="M157.2,14.8c0.3,0.1,0.7,0.2,1.1,0.2c0.6,0,1.3-0.2,1.8-0.6h-2.4C157.5,14.5,157.3,14.6,157.2,14.8z"/>
				<path class="st1" d="M157.9,14.1h2.5c0.2-0.1,0.3-0.3,0.4-0.5h-2.5C158.2,13.8,158.1,13.9,157.9,14.1z"/>
				<path class="st1" d="M158.6,13.3h2.5c0.1-0.2,0.2-0.3,0.2-0.5h-2.5C158.8,13,158.7,13.1,158.6,13.3z"/>
				<path class="st1" d="M159.3,11.7h2.4c0-0.2,0-0.3,0-0.5h-2.4C159.3,11.4,159.3,11.6,159.3,11.7z"/>
				<path class="st1" d="M158.3,7.3c-0.4,0-0.7,0.1-1,0.2c0.1,0.1,0.2,0.2,0.3,0.3h2.3C159.4,7.5,158.9,7.3,158.3,7.3z"/>
				<path class="st1" d="M157.9,8.1c0.2,0.2,0.3,0.3,0.4,0.5h2.4c-0.1-0.2-0.3-0.3-0.5-0.5H157.9z"/>
			</g>
		</g>
	</g>
	<path class="st0" d="M191.8,7.2h-2.5l-2.5,5h0l0.3-5h-2.4l-2.7,5l0,0l0.5-4.9h-2.3l-0.4,7.3c0,0.2,0.1,0.7,0.5,0.8h1.9l2.7-5h0
		l-0.2,4.1c0,0.2,0.1,0.8,0.6,0.9h1.9L191.8,7.2z"/>
</g>
<g>
	<path class="st2" d="M22.8,1.8h0.4c0.2,0,0.4,0,0.5-0.1c0.1-0.1,0.1-0.2,0.1-0.3c0-0.1,0-0.2-0.1-0.3C23.6,1,23.5,1,23.3,1h-0.4
		V1.8L22.8,1.8z M22.5,2.9V0.8h0.8c0.3,0,0.5,0,0.6,0.1c0.1,0.1,0.2,0.2,0.2,0.4c0,0.1,0,0.3-0.1,0.3c-0.1,0.1-0.2,0.1-0.4,0.2
		c0.1,0,0.3,0,0.3,0.1C24,2,24.1,2.1,24.1,2.3c0,0.1,0,0.1,0,0.2c0,0.2,0.1,0.4,0.1,0.4h-0.4c0,0-0.1-0.2-0.1-0.4c0-0.1,0-0.2,0-0.2
		c0-0.1-0.1-0.2-0.1-0.3C23.6,2,23.4,2,23.2,2h-0.4v1H22.5L22.5,2.9z"/>
	<path class="st3" d="M23.2,0.2c0.9,0,1.7,0.8,1.7,1.7c0,0.9-0.7,1.6-1.6,1.6c-0.9,0-1.6-0.6-1.6-1.6C21.6,0.9,22.3,0.2,23.2,0.2
		L23.2,0.2z M23.2-0.1c1,0,1.9,0.9,1.9,1.9c0,1.1-0.8,1.9-1.9,1.9c-1,0-1.9-0.9-1.9-1.9C21.4,0.8,22.2-0.1,23.2-0.1L23.2-0.1z"/>
	<path class="st3" d="M19.4,6.3c1.9-1,4.1-1.5,6.7,0.5c-1.7,1.2-1.3,4.1,2,3.9c-0.1,4.7-3.5,5.5-5.6,6.1c2.1,1,3.6,5.5,0.7,8.5
		c-0.8-1.8-4.1-1.9-4,1.4c-2.5,0-3.8-1.4-5.3-3.3c-1.6,2-2.6,3.2-5.2,3.2c0-2.8-2.7-3.3-4.1-1.5c-2.3-2.8-2.3-6.1,0.2-8.3
		c-2.6-0.7-5.1-1.7-5.1-6c2.4,0,4.1-1.5,2.1-3.9c1.5-1.4,4.6-1.8,6.3-0.6C8,5.5,7.5,1.9,11.8-0.2c0,2.4,4.2,2.4,4.3,0.1
		C19.6,1.4,19.8,5.2,19.4,6.3L19.4,6.3z"/>
	<path class="st4" d="M6.2,8.4C5.6,7.9,4.5,8.5,4.4,9.3c0,0.7,0.5,1.2,0.7,1.5c0.2,0.3,0.4,0.7,0.5,0.8c0.1,0.1,0.4,0.8,0,0.8
		c-0.4,0-0.7-0.4-0.8-0.6c-0.1-0.1-0.2-0.5-0.3-0.6C4.4,11,3.8,11,3.8,11.6c0,0.6,0.4,0.9,0.6,1.1c0.2,0.2,0.6,0.5,1.2,0.5
		c0.5,0,1.1-0.6,1.3-0.9c0.1-0.3,0.1-0.7,0-1.1c-0.2-0.4-0.9-1.1-1.1-1.3C5.5,9.7,5.3,9.2,5.5,9.1C5.7,9,5.8,9,5.9,9.2
		c0.1,0.2,0.2,0.5,0.5,0.5c0.2,0,0.4-0.1,0.4-0.2c0-0.1,0.1-0.3-0.1-0.5C6.6,8.7,6.3,8.5,6.2,8.4L6.2,8.4z"/>
	<path class="st4" d="M10.5,9c0.1,0.3,0.3,1.2,0.3,1.1c0,0,0.1,0.7,0.2,1.3c0,0.5,0.1,1.7,0.1,1.8c-0.1,0.2,0.2,0.1,0.2,0.1
		c0.1-0.1,0.4-1.1,0.4-1.6c0.1-0.5,0.1-0.7,0.1-0.7c0.1,0,0.1,0.1,0.2,0.4c0.1,0.4,0.4,1.2,0.5,1.4c0.1,0.2,0.2,0.5,0.8,0.6
		c0.5,0,0.6-0.2,0.6-0.2c0.4-0.5-0.6-1-0.8-1.3c-0.1-0.2-0.8-1.1-0.8-1.2c0-0.1,0.4-0.2,0.7-0.5c0.3-0.3,0.7-0.5,0.8-0.9
		c0.1-0.3,0-0.6-0.2-0.7c-0.2-0.1-0.4-0.2-0.5,0.1c-0.1,0.2-1.2,2.3-1.1,1.7c0-0.2,0-0.8-0.1-1.3c-0.2-0.6-0.4-0.8-0.8-0.4
		C10.7,8.6,10.5,8.8,10.5,9L10.5,9z"/>
	<path class="st4" d="M15.3,9.2c0.1-0.1,0.3-0.3,0.2-0.6c0-0.2-0.2-0.3-0.3-0.4c-0.3-0.1-0.9,0.1-0.9,0.4c0,0.2,0,3.3,0,3.5
		c0,0.6,0.2,1.2,1.3,1c0.1,0,0.5-0.4,0.8-0.1c0.3,0.3,0.7,0.1,0.7-0.1c0-0.1,0-3,0-3.3c0-0.4,0-0.7-0.1-1c0-0.3-0.2-0.4-0.3-0.4
		c-0.1,0-0.3,0-0.4,0.1c-0.1,0.1-0.3,0.2-0.3,0.5c0,0.1,0.1,0.2,0.1,0.2c0,0,0,2.4,0,2.6c0,0.7-0.9,0.6-0.9,0.1
		C15.3,11.4,15.3,9.2,15.3,9.2L15.3,9.2z"/>
	<path class="st4" d="M19.7,8.4c0.3,0.2,0.8,0.4,0.8,1.1c0,0.7-0.7,1.1-0.8,1.2c0,0-0.3,0.2-0.4,0.3c-0.1,0,0.1,0.1,0.3,0.3
		c0.4,0.3,0.6,0.6,0.8,0.8c0.1,0.2,0.3,0.5,0.3,0.6c0,0.1,0,0.2-0.1,0.4c-0.2,0.2-0.4,0.2-0.8-0.1c-0.3-0.2-0.4-0.6-0.6-0.9
		c-0.1-0.3-0.4-0.6-0.4-0.6c0,0-0.3-0.3-0.3-0.3c-0.1,0.1,0,0.7,0.1,0.8c0,0.1,0,0.2,0.1,0.3c0.1,0.3,0,0.8-0.3,0.8
		c-0.2,0-0.6-0.1-0.6-0.4c-0.1-0.4-0.1-0.8-0.1-0.8s0.1-2.4,0.1-2.6c0-0.2,0-0.4-0.1-0.4c0-0.1-0.3-0.3-0.1-0.5
		C17.8,8.1,19.4,8.2,19.7,8.4L19.7,8.4z"/>
	<path class="st4" d="M8.6,9c0,0-0.4,0.8-0.8,1.5c-0.3,0.5-0.5,1.1-0.5,1.3c0,0.6,0,0.7,0.1,1c0.2,0.3,0.4,0.4,0.7,0.4
		c0.2-0.1,0.3-0.4,0.3-0.5c0-0.1-0.1-0.6-0.1-0.6l1.3,0c0,0,0.3,1.1,0.4,1.2c0.1,0.1,0.2-0.1,0.3-0.5c0.1-0.5,0.3-2.2,0-2.9
		C10,9.2,9.8,8.8,9.5,8.5C9.3,8.3,9.1,8.2,8.8,8.3C8.5,8.4,8.4,8.6,8.3,8.7C8.3,8.9,8.6,9,8.6,9L8.6,9z"/>
	<path class="st3" d="M9.2,10.9c0.2,0.7,0.2,0.6,0.2,0.6s-1.1,0-1.1,0c0,0,0.1-0.5,0.2-0.7C8.7,9.9,9,10.2,9.2,10.9L9.2,10.9z"/>
	<path class="st4" d="M22.3,9c0,0-0.4,0.8-0.8,1.5C21.2,11,21,11.5,21,11.8c0,0.6,0,0.7,0.1,1c0.2,0.3,0.4,0.4,0.7,0.4
		c0.2-0.1,0.3-0.4,0.3-0.5c0-0.1-0.1-0.6-0.1-0.6l1.3,0c0,0,0.2,1.1,0.4,1.1c0.2,0,0.2-0.1,0.3-0.5c0.1-0.5,0.3-2.2,0-2.9
		c-0.3-0.7-0.5-1.1-0.8-1.3c-0.2-0.2-0.4-0.4-0.7-0.3c-0.3,0.1-0.4,0.3-0.5,0.4C22,8.8,22.3,9,22.3,9L22.3,9z"/>
	<path class="st3" d="M22.9,10.9c0.2,0.7,0.2,0.6,0.2,0.6s-1.1,0-1.1,0c0,0,0.1-0.5,0.2-0.7C22.4,9.9,22.7,10.2,22.9,10.9L22.9,10.9
		z"/>
	<path class="st3" d="M18.5,9.3l0,1.3c0,0,0.6-0.1,0.9-0.5c0.2-0.4-0.1-0.6-0.3-0.7C19,9.3,18.7,9.3,18.5,9.3
		C18.5,9.3,18.5,9.3,18.5,9.3L18.5,9.3z"/>
	<path class="st4" d="M13.9,15c3,0,5.5,1.2,5.5,2.8c0,1.5-2.4,2.8-5.5,2.8c-3,0-5.5-1.2-5.5-2.8C8.4,16.3,10.9,15,13.9,15L13.9,15z
		 M13.9,14.5c3.3,0,6,1.5,6,3.3c0,1.8-2.7,3.3-6,3.3c-3.3,0-6-1.5-6-3.3C7.9,16,10.6,14.5,13.9,14.5L13.9,14.5z"/>
	<path class="st5" d="M10.4,18.4h0.4c0,0.3,0.1,0.5,0.2,0.6c0.1,0.2,0.3,0.2,0.6,0.2c0.2,0,0.4-0.1,0.6-0.2c0.1-0.1,0.2-0.3,0.2-0.5
		c0-0.3-0.3-0.5-0.8-0.6c0,0-0.1,0-0.1,0c-0.4-0.1-0.7-0.2-0.9-0.4c-0.1-0.1-0.2-0.3-0.2-0.6c0-0.3,0.1-0.6,0.3-0.8
		c0.2-0.2,0.5-0.3,0.8-0.3c0.4,0,0.6,0.1,0.8,0.3c0.2,0.2,0.3,0.5,0.3,0.8l-0.4,0c0-0.2-0.1-0.4-0.2-0.6c-0.1-0.1-0.3-0.2-0.5-0.2
		c-0.2,0-0.4,0.1-0.5,0.2c-0.1,0.1-0.2,0.2-0.2,0.4c0,0.3,0.3,0.5,0.8,0.6c0.1,0,0.1,0,0.2,0c0,0,0,0,0,0c0.3,0.1,0.6,0.2,0.7,0.3
		c0.1,0.1,0.2,0.2,0.2,0.3c0,0.1,0.1,0.2,0.1,0.4c0,0.3-0.1,0.6-0.3,0.8c-0.2,0.2-0.5,0.3-0.9,0.3c-0.4,0-0.7-0.1-0.9-0.3
		C10.5,19.1,10.4,18.8,10.4,18.4L10.4,18.4z M13.1,20.1l1.1-4.2h0.3l-1.1,4.2H13.1L13.1,20.1z M14.7,19.6V16h2.1v0.5h-1.7v1.1h1.5
		v0.4h-1.5v1.6H14.7L14.7,19.6z"/>
	<path class="st3" d="M36.6,3.8c-2.3,0.1-3.1,1.2-3.3,3c0,0.3,0,1.5,0,2.2c0.2,1.6,2.5,3.1,3.8,4.1c0.8,0.6,1.6,1.2,1.6,2.3
		c0,0.9-0.9,1.4-2.1,1.4c-1.2,0-1.9-0.6-1.9-1.8c0-1.1,0.1-1.6,0-1.6l-1.5,0c0,0,0,1.6,0,2.9c0,2.5,1.3,4.2,3.6,4.3
		c2,0,3.4-1.1,3.6-2.5c0.1-0.8,0.1-1.2,0.1-2.1c-0.1-3.1-3.3-4.2-5.1-6.2c-0.7-0.8-0.4-2.4,1.2-2.4c2.2-0.1,1.8,2.8,1.9,2.8l1.6,0
		c0,0,0-2.5,0-3.3C40.2,4.7,38.5,3.8,36.6,3.8L36.6,3.8z"/>
	<path class="st3" d="M56.7,7.7v0.8c-2.9,0.1-5.2,1.2-5.2,3.6c0,2.4,2.3,3.1,5.2,3.3c0,1.7,0,3.5,0,5.1c-1.3,0-2.9-0.6-3.8-1.4
		c-0.5-0.4-0.8-0.6-1.3-1.5c0,0.1,0,2.9-0.1,2.9l-1.6,0l0-16.9l1.6,0c0,0,0,1.9,0,2.7c0.7-1.1,1.8-2.3,3.2-2.6
		c0.7-0.1,1.2-0.1,1.9-0.1V7.7L56.7,7.7z"/>
	<path class="st3" d="M66.8,3.9l-0.1,16.8l1.7,0l0-7.2c0-0.1,0.1-0.1,1.7,0c1,0,1.2,0.3,1.4,0.4c0.5,0.6,0.6,1,0.6,3.6
		c0,2.6-0.1,3.2,0,3.2l1.7,0c0,0,0.1-5.7-0.1-6.5c-0.2-0.9-1.1-1.6-1.1-1.6s0.5-0.1,0.8-0.6c0.3-0.5,0.3-0.8,0.3-2.9
		c0-2.1,0.1-3.6-0.4-4.2c-0.5-0.6-1-1-3.6-1C67.2,3.8,66.8,3.9,66.8,3.9L66.8,3.9z M68.5,8.5l0,3.2c0,0,1.4,0,2,0
		c0.6,0,1.7,0,1.8-1.4c0.1-1.4-0.7-1.8-1.2-1.8C70.4,8.5,68.5,8.5,68.5,8.5L68.5,8.5z"/>
	<path class="st3" d="M63.8,3.8l1.8,0c0,0,0,10.3,0,11.7c0,1.3,0.1,5.1-3.8,5.1c-3.6,0.1-3.8-3.4-3.8-5.2l0.1-11.6c0,0,1.7,0,1.7,0
		c0,1.3-0.1,8.2,0,9.1c0,0.9-0.4,2.7,2,2.6c2.3,0,2-1.8,2-2.7C63.8,11.9,63.8,3.8,63.8,3.8L63.8,3.8z"/>
	<path class="st3" d="M48.8,20.7l-1.6,0l0-5.5l-4,0l0,5.5l-1.6,0c0,0,0.1-11.4,0.1-13.5c0-2.1,1.7-3.4,3.5-3.4
		c1.8,0,3.5,1.6,3.5,3.4C48.8,9.1,48.8,20.7,48.8,20.7L48.8,20.7z M47.2,13.3c0,0,0-1.2,0-2.5c0-1.2-0.5-2.2-1.9-2.2
		c-1.4,0-2,0.9-2.1,2.4c0,1.5,0,2.3,0,2.3L47.2,13.3L47.2,13.3z"/>
	<path class="st3" d="M81.8,20.7l-1.6,0l0-5.5l-4,0l0,5.5l-1.6,0c0,0,0.1-11.4,0.1-13.5c0-2.1,1.7-3.4,3.5-3.4
		c1.8,0,3.5,1.6,3.5,3.4C81.8,9.1,81.8,20.7,81.8,20.7L81.8,20.7z M80.2,13.3c0,0,0-1.2,0-2.5c0-1.2-0.5-2.2-1.9-2.2
		c-1.4,0-2,0.9-2.1,2.4c0,1.5,0,2.3,0,2.3L80.2,13.3L80.2,13.3z"/>
	<path class="st6" d="M33.3,26.4c0,0.2,0.1,0.4,0.3,0.4c0.2,0,0.3-0.1,0.3-0.4v-0.9h0.6c0.2,0,0.3-0.1,0.3-0.3
		c0-0.2-0.1-0.3-0.3-0.3H34v-0.6h0.7c0.2,0,0.3-0.1,0.3-0.3c0-0.2-0.1-0.3-0.3-0.3h-1c-0.2,0-0.3,0.1-0.3,0.4V26.4L33.3,26.4z
		 M36.2,26.4c0,0.2,0.1,0.4,0.3,0.4c0.2,0,0.3-0.2,0.3-0.4v-1.7c0-0.2-0.1-0.4-0.3-0.4c-0.2,0-0.3,0.2-0.3,0.4V26.4L36.2,26.4z
		 M36.1,23.8c0,0.2,0.2,0.4,0.4,0.4c0.2,0,0.4-0.2,0.4-0.4c0-0.2-0.2-0.4-0.4-0.4C36.3,23.3,36.1,23.5,36.1,23.8L36.1,23.8z
		 M38.1,26.4c0,0.2,0.1,0.4,0.3,0.4c0.2,0,0.3-0.2,0.3-0.4v-2.7c0-0.2-0.1-0.4-0.3-0.4c-0.2,0-0.3,0.2-0.3,0.4V26.4L38.1,26.4z
		 M40.3,26.4c0,0.2,0.1,0.4,0.3,0.4c0.2,0,0.3-0.2,0.3-0.4V25h0.2c0.2,0,0.3-0.1,0.3-0.3c0-0.2-0.1-0.3-0.3-0.3h-0.2v-0.4
		c0-0.2-0.1-0.4-0.3-0.4c-0.2,0-0.3,0.2-0.3,0.4v0.4h-0.1c-0.2,0-0.3,0.1-0.3,0.3c0,0.2,0.1,0.3,0.3,0.3h0.1V26.4L40.3,26.4z
		 M42.6,26.4c0,0.2,0.1,0.4,0.3,0.4c0.2,0,0.3-0.2,0.3-0.4v-0.8c0-0.3,0.1-0.4,0.4-0.5c0.2-0.1,0.4-0.1,0.4-0.4
		c0-0.2-0.2-0.4-0.3-0.4c-0.2,0-0.3,0.1-0.4,0.3c0-0.1-0.1-0.2-0.3-0.2c-0.2,0-0.3,0.2-0.3,0.4V26.4L42.6,26.4z M47.1,24.7
		c0-0.2-0.1-0.4-0.3-0.4c-0.2,0-0.2,0.1-0.3,0.2c-0.1-0.2-0.3-0.3-0.5-0.3c-0.5,0-1,0.5-1,1.2c0,0.7,0.4,1.2,1,1.2
		c0.2,0,0.4-0.1,0.5-0.3c0,0.1,0.1,0.2,0.3,0.2c0.2,0,0.3-0.2,0.3-0.4V24.7L47.1,24.7z M46.1,25c0.3,0,0.4,0.3,0.4,0.6
		c0,0.3-0.2,0.6-0.4,0.6c-0.3,0-0.4-0.3-0.4-0.6C45.6,25.2,45.8,25,46.1,25L46.1,25z M48.6,26.4c0,0.2,0.1,0.4,0.3,0.4
		c0.2,0,0.3-0.2,0.3-0.4V25h0.2c0.2,0,0.3-0.1,0.3-0.3c0-0.2-0.1-0.3-0.3-0.3h-0.2v-0.4c0-0.2-0.1-0.4-0.3-0.4
		c-0.2,0-0.3,0.2-0.3,0.4v0.4h-0.1c-0.2,0-0.3,0.1-0.3,0.3c0,0.2,0.1,0.3,0.3,0.3h0.1V26.4L48.6,26.4z M50.9,26.4
		c0,0.2,0.1,0.4,0.3,0.4c0.2,0,0.3-0.2,0.3-0.4v-1.7c0-0.2-0.1-0.4-0.3-0.4c-0.2,0-0.3,0.2-0.3,0.4V26.4L50.9,26.4z M50.8,23.8
		c0,0.2,0.2,0.4,0.4,0.4c0.2,0,0.4-0.2,0.4-0.4c0-0.2-0.2-0.4-0.4-0.4C51,23.3,50.8,23.5,50.8,23.8L50.8,23.8z M53.9,24.3
		c-0.6,0-1,0.5-1,1.2c0,0.7,0.4,1.2,1,1.2c0.6,0,1-0.5,1-1.2C54.9,24.9,54.5,24.3,53.9,24.3L53.9,24.3z M53.9,25
		c0.3,0,0.4,0.3,0.4,0.6c0,0.3-0.2,0.6-0.4,0.6c-0.3,0-0.4-0.3-0.4-0.6C53.4,25.2,53.6,25,53.9,25L53.9,25z M56.2,26.4
		c0,0.2,0.1,0.4,0.3,0.4c0.2,0,0.3-0.2,0.3-0.4v-1.1c0-0.2,0.1-0.4,0.3-0.4c0.2,0,0.3,0.2,0.3,0.4v1.1c0,0.2,0.1,0.4,0.3,0.4
		c0.2,0,0.3-0.2,0.3-0.4v-1.3c0-0.6-0.3-0.8-0.8-0.8c-0.3,0-0.4,0.1-0.5,0.3c0-0.1-0.1-0.2-0.3-0.2c-0.2,0-0.3,0.2-0.3,0.4V26.4
		L56.2,26.4z M62.4,24.2h0.3c0.3,0,0.4,0.1,0.4,0.4c0,0.2-0.2,0.4-0.4,0.4h-0.3V24.2L62.4,24.2z M61.8,26.4c0,0.2,0.1,0.4,0.3,0.4
		c0.2,0,0.3-0.1,0.3-0.4v-0.6h0.5c0.6,0,1-0.4,1-1.1c0-0.7-0.5-1.1-1-1.1h-0.8c-0.2,0-0.3,0.1-0.3,0.4V26.4L61.8,26.4z M65.1,26.4
		c0,0.2,0.1,0.4,0.3,0.4c0.2,0,0.3-0.2,0.3-0.4v-0.8c0-0.3,0.1-0.4,0.4-0.5c0.2-0.1,0.4-0.1,0.4-0.4c0-0.2-0.2-0.4-0.3-0.4
		c-0.2,0-0.3,0.1-0.4,0.3c0-0.1-0.1-0.2-0.3-0.2c-0.2,0-0.3,0.2-0.3,0.4V26.4L65.1,26.4z M68.6,24.3c-0.6,0-1,0.5-1,1.2
		c0,0.7,0.4,1.2,1,1.2c0.6,0,1-0.5,1-1.2C69.7,24.9,69.2,24.3,68.6,24.3L68.6,24.3z M68.6,25c0.3,0,0.4,0.3,0.4,0.6
		c0,0.3-0.2,0.6-0.4,0.6c-0.3,0-0.4-0.3-0.4-0.6C68.2,25.2,68.3,25,68.6,25L68.6,25z M73,23.7c0-0.2-0.1-0.4-0.3-0.4
		c-0.2,0-0.3,0.2-0.3,0.4v0.8c-0.1-0.1-0.2-0.2-0.5-0.2c-0.5,0-1,0.5-1,1.2c0,0.7,0.4,1.2,1,1.2c0.2,0,0.4-0.1,0.5-0.3
		c0,0.1,0.1,0.2,0.3,0.2c0.2,0,0.3-0.2,0.3-0.4V23.7L73,23.7z M71.9,25c0.3,0,0.4,0.3,0.4,0.6c0,0.3-0.2,0.6-0.4,0.6
		c-0.3,0-0.4-0.3-0.4-0.6C71.5,25.2,71.7,25,71.9,25L71.9,25z M76.3,24.7c0-0.2-0.1-0.4-0.3-0.4c-0.2,0-0.3,0.2-0.3,0.4v1.1
		c0,0.3-0.2,0.4-0.3,0.4c-0.2,0-0.3-0.1-0.3-0.4v-1.1c0-0.2-0.1-0.4-0.3-0.4c-0.2,0-0.3,0.2-0.3,0.4v1.2c0,0.6,0.4,0.9,1,0.9
		c0.5,0,1-0.3,1-0.9V24.7L76.3,24.7z M77.6,25.5c0,0.7,0.4,1.2,1,1.2c0.2,0,0.7-0.1,0.7-0.5c0-0.1-0.1-0.3-0.3-0.3
		c-0.1,0-0.2,0.1-0.5,0.1c-0.3,0-0.4-0.3-0.4-0.6c0-0.3,0.1-0.6,0.5-0.6c0.2,0,0.3,0.1,0.4,0.1c0.1,0,0.3-0.1,0.3-0.3
		c0-0.4-0.5-0.4-0.7-0.4C78,24.3,77.6,24.9,77.6,25.5L77.6,25.5z M80.8,26.4c0,0.2,0.1,0.4,0.3,0.4c0.2,0,0.3-0.2,0.3-0.4V25h0.2
		c0.2,0,0.3-0.1,0.3-0.3c0-0.2-0.1-0.3-0.3-0.3h-0.2v-0.4c0-0.2-0.1-0.4-0.3-0.4c-0.2,0-0.3,0.2-0.3,0.4v0.4h-0.1
		c-0.2,0-0.3,0.1-0.3,0.3c0,0.2,0.1,0.3,0.3,0.3h0.1V26.4L80.8,26.4z"/>
</g>
</svg>
